<?xml version="1.0" standalone="no"?>
<!DOCTYPE svg PUBLIC "-//W3C//DTD SVG 20010904//EN"
 "http://www.w3.org/TR/2001/REC-SVG-20010904/DTD/svg10.dtd">
<svg version="1.0" xmlns="http://www.w3.org/2000/svg"
 width="8001.000000pt" height="4500.000000pt" viewBox="0 0 8001.000000 4500.000000"
 preserveAspectRatio="xMidYMid meet">
<metadata>
Created by potrace 1.15, written by Peter Selinger 2001-2017
</metadata>
<g transform="translate(0.000000,4500.000000) scale(0.100000,-0.100000)"
fill="#000000" stroke="none">
<path d="M51882 38829 c-936 -59 -1826 -384 -2545 -927 -324 -244 -631 -550
-877 -872 -786 -1031 -1056 -2374 -738 -3665 160 -651 481 -1259 942 -1784
167 -190 413 -419 634 -589 l94 -72 -79 -1 c-43 0 -196 -4 -341 -8 -223 -7
-266 -10 -279 -24 -15 -15 -15 -95 11 -1054 14 -571 29 -1117 32 -1213 l5
-175 -73 140 c-311 588 -733 1082 -1263 1475 -71 53 -157 115 -189 136 l-59
39 220 3 c194 2 222 4 236 20 13 15 10 432 -35 4197 -46 3780 -52 4182 -67
4197 -15 16 -99 16 -1396 1 -1238 -14 -1382 -18 -1396 -32 -15 -15 -15 -152 6
-1831 13 -998 22 -1816 21 -1816 0 -1 -676 815 -1500 1813 l-1499 1816 -281
-7 c-155 -3 -742 -11 -1306 -17 -932 -10 -1027 -13 -1042 -28 -17 -16 -15
-218 33 -4150 28 -2273 48 -4135 46 -4137 -2 -2 -66 27 -143 65 -441 220 -921
356 -1474 418 -244 27 -832 24 -1079 -6 -578 -70 -1108 -226 -1578 -465 l-123
-63 -1 76 c0 42 -8 693 -18 1446 l-18 1370 1543 2702 c849 1486 1544 2706
1544 2711 0 5 -6 15 -13 21 -19 15 -3093 -23 -3112 -39 -8 -6 -326 -623 -707
-1370 -381 -748 -695 -1360 -698 -1360 -3 0 -327 600 -720 1332 -393 733 -724
1342 -735 1354 l-20 22 -1450 -19 c-1790 -23 -1675 -20 -1688 -40 -8 -12 39
-97 216 -393 l227 -377 -58 44 c-479 368 -1154 602 -1972 682 -374 36 -512 37
-2625 11 -1116 -14 -3767 -46 -5890 -72 -3528 -42 -3861 -48 -3877 -63 -16
-15 -17 -81 -2 -1191 14 -1083 16 -1176 32 -1192 16 -16 88 -16 1230 -2 668 9
1215 14 1216 12 4 -4 75 -5822 72 -5825 -1 -2 -358 -12 -792 -24 -599 -16
-792 -24 -802 -34 -11 -10 -8 -214 18 -1191 28 -1063 33 -1181 48 -1195 16
-16 105 -14 1232 16 668 18 1216 33 1217 32 4 -5 156 -5827 152 -5831 -3 -3
-499 -19 -1103 -35 -921 -25 -1101 -32 -1113 -44 -13 -13 -4 -438 76 -3433 50
-1881 91 -3443 91 -3473 l0 -54 -1078 6 c-1020 7 -1080 6 -1095 -10 -14 -17
101 -217 1554 -2720 l1569 -2702 0 -1489 c0 -1144 3 -1491 12 -1500 9 -9 336
-12 1409 -12 1271 0 1398 1 1410 16 11 13 14 284 17 1512 l4 1496 1301 2199
1301 2200 51 20 c104 42 325 161 445 241 181 120 349 264 482 414 l56 63 -90
-233 c-66 -173 -96 -239 -117 -258 -15 -14 -77 -64 -137 -111 -337 -266 -659
-618 -908 -994 -135 -204 -184 -288 -288 -499 -214 -438 -343 -883 -405 -1404
-25 -208 -25 -756 0 -964 64 -533 198 -991 422 -1438 209 -418 442 -744 780
-1089 640 -654 1443 -1085 2365 -1271 802 -161 1638 -125 2412 106 1323 394
2402 1368 2891 2611 30 76 65 171 78 210 13 40 25 73 28 73 4 0 14 -48 24
-107 85 -516 274 -1016 535 -1412 201 -306 504 -616 802 -820 415 -285 902
-480 1480 -595 653 -129 1531 -147 2240 -45 704 101 1314 327 1781 659 476
340 836 793 1068 1346 166 396 269 838 322 1384 14 143 27 1666 28 3285 l1
1200 123 82 c411 275 806 665 1101 1086 64 92 76 105 80 85 2 -13 12 -345 22
-738 11 -482 20 -720 28 -729 9 -11 62 -13 316 -7 168 3 355 9 415 12 l110 5
-60 -52 c-211 -185 -493 -486 -641 -684 -504 -672 -790 -1444 -855 -2304 -15
-202 -6 -709 15 -891 90 -754 317 -1374 718 -1967 145 -213 289 -385 503 -599
351 -352 685 -594 1116 -809 484 -241 952 -377 1534 -447 149 -18 845 -18
1010 0 652 70 1138 205 1625 453 317 161 538 313 869 596 28 24 40 31 34 18
-6 -11 -92 -215 -193 -454 -153 -364 -180 -435 -169 -446 12 -11 279 -15 1504
-21 1473 -7 1490 -7 1507 13 10 11 112 262 226 559 l208 539 1455 0 1454 0
213 -545 c117 -300 221 -553 230 -562 16 -16 205 -17 2739 -24 2200 -6 2725
-5 2738 6 13 11 15 155 16 1299 1 707 5 1562 8 1899 l6 613 1532 -1914 1533
-1914 1247 -6 c992 -4 1251 -3 1261 7 20 20 41 8382 21 8401 -11 10 -266 14
-1401 17 -960 4 -1390 2 -1398 -6 -7 -7 -10 -290 -11 -886 -1 -481 -5 -1299
-8 -1818 l-6 -943 -1463 1826 c-805 1003 -1468 1827 -1473 1830 -5 4 -342 9
-749 12 -407 4 -740 7 -741 7 -3 5 -65 2412 -62 2416 2 2 877 27 1944 56 1577
42 1943 54 1953 65 18 20 -40 2178 -58 2197 -11 11 -351 4 -1955 -39 -1068
-28 -1943 -50 -1945 -48 -5 6 -30 1008 -25 1013 2 2 944 29 2093 60 1629 43
2092 58 2102 68 10 10 7 232 -17 1131 -17 615 -29 1121 -26 1123 3 3 1010 32
2239 65 1819 49 2236 62 2247 74 21 21 -41 2291 -63 2313 -14 14 -243 10
-2221 -43 -1212 -32 -2208 -56 -2211 -52 -8 8 -30 845 -22 852 3 3 918 30
2033 60 1586 42 2031 57 2041 67 19 20 -36 2023 -56 2042 -13 11 -329 5 -2043
-41 -1116 -30 -2030 -53 -2032 -51 -7 7 -28 789 -21 795 3 3 985 32 2183 64
1744 47 2179 61 2190 72 20 19 -41 2295 -62 2316 -11 11 -339 5 -2165 -44
-1183 -32 -2153 -56 -2155 -53 -6 5 -68 5048 -63 5054 2 2 551 11 1219 19
1015 13 1216 18 1228 30 12 12 12 180 1 1192 -11 1066 -14 1180 -29 1194 -15
14 -357 11 -3875 -32 -3333 -41 -3861 -50 -3874 -62 -12 -13 -13 -113 -6 -776
l9 -761 -20 27 c-49 68 -187 225 -297 339 -577 597 -1326 1027 -2151 1234
-488 123 -1032 172 -1545 139z m559 -2535 c768 -105 1339 -727 1454 -1584 17
-123 19 -409 5 -530 -40 -326 -148 -625 -321 -886 -95 -143 -294 -344 -429
-433 -158 -105 -345 -187 -537 -236 -236 -59 -590 -59 -826 0 -337 85 -637
265 -849 509 -519 598 -626 1533 -258 2263 336 667 996 1003 1761 897z m5933
-296 c3 -145 17 -1257 31 -2473 35 -3018 30 -2809 143 -6940 55 -2024 98
-3683 96 -3687 -3 -5 -66 -8 -140 -8 l-134 0 0 78 c-1 42 -49 1894 -109 4115
-97 3628 -110 4040 -125 4055 -15 15 -126 13 -1468 -22 -1307 -34 -1455 -40
-1470 -55 -10 -9 -396 -675 -858 -1481 -462 -806 -844 -1466 -848 -1468 -8 -2
-1261 1930 -1256 1937 2 2 83 7 181 12 1492 71 2832 805 3632 1989 410 607
647 1267 716 2000 21 216 16 731 -9 930 -49 390 -135 731 -273 1079 -35 90
-62 165 -59 168 2 3 431 11 953 17 521 7 958 14 969 15 22 1 22 -1 28 -261z
m-26439 -4435 c16 -1335 19 -1480 34 -1495 15 -16 78 -17 1126 -3 611 8 1193
15 1294 15 l184 0 -134 -91 c-387 -263 -753 -613 -1031 -984 -599 -801 -896
-1791 -848 -2829 20 -442 76 -780 192 -1166 265 -881 820 -1657 1578 -2205
331 -240 797 -477 1183 -601 l88 -28 -108 -28 c-589 -152 -1176 -444 -1639
-813 -895 -715 -1449 -1701 -1593 -2835 -86 -669 -19 -1412 182 -2030 185
-567 504 -1120 885 -1533 36 -40 77 -84 91 -99 l25 -28 -400 0 -400 0 -1577
3503 c-867 1926 -1579 3509 -1581 3517 -4 11 30 35 129 89 588 322 1135 814
1518 1363 647 929 894 2058 701 3208 -281 1678 -1573 3045 -3284 3474 l-173
43 724 8 c1191 13 1380 17 1391 35 8 12 -158 254 -717 1050 -401 569 -844
1200 -986 1402 l-258 367 100 55 c360 202 673 454 901 726 342 408 544 905
599 1475 22 226 2 729 -37 930 -3 17 406 -655 909 -1492 l915 -1521 17 -1479z
m-5313 4423 c298 -56 509 -191 609 -387 58 -115 74 -197 74 -374 0 -181 -15
-249 -83 -379 -106 -203 -337 -343 -662 -401 -110 -19 -561 -33 -1126 -34
l-352 -1 -6 373 c-3 204 -9 562 -12 795 l-6 422 143 1 c79 1 355 5 614 8 512
7 674 2 807 -23z m-4408 -128 c7 -107 71 -5666 65 -5671 -6 -6 -2148 -61
-2152 -56 -4 3 -76 5781 -73 5785 1 2 1507 20 1863 22 l291 2 6 -82z m21021
-3373 c675 -819 1232 -1495 1236 -1501 6 -7 -48 -14 -182 -23 -464 -28 -863
-105 -1283 -245 -305 -102 -620 -245 -878 -399 l-108 -65 0 227 c0 124 -9 921
-20 1771 -24 1886 -24 1758 -7 1740 8 -8 567 -685 1242 -1505z m-16799 -1245
l763 -1125 -187 -12 c-526 -35 -1024 -145 -1490 -329 -161 -64 -477 -218 -625
-305 -517 -305 -978 -712 -1318 -1164 -40 -53 -74 -94 -76 -91 -4 4 -53 1729
-50 1732 1 1 372 5 824 10 748 8 824 11 839 26 16 15 16 93 5 1130 -6 612 -13
1143 -16 1180 l-4 68 182 3 c100 1 229 3 287 2 l104 0 762 -1125z m15363
-1137 c-406 -289 -769 -651 -1047 -1043 -53 -74 -99 -139 -103 -143 -4 -5 -40
38 -80 95 -294 415 -659 775 -1068 1056 -57 40 -102 72 -100 73 11 3 1825 26
2138 27 l353 2 -93 -67z m2886 -1664 c231 -20 437 -78 635 -180 516 -267 856
-788 941 -1439 18 -139 15 -422 -5 -564 -77 -542 -349 -1001 -751 -1270 -381
-255 -903 -341 -1364 -225 -147 37 -229 68 -372 141 -319 163 -575 436 -745
793 -137 289 -196 560 -197 905 0 337 57 602 189 879 104 217 207 364 367 517
263 254 619 412 997 443 139 12 172 12 305 0z m-4349 -91 c-115 -264 -185
-465 -245 -698 -238 -921 -163 -1932 207 -2795 33 -77 59 -141 58 -143 -2 -1
-398 207 -882 464 l-878 466 -19 -24 c-11 -12 -30 -45 -44 -73 -36 -70 -127
-216 -194 -310 -303 -426 -689 -645 -1208 -685 -452 -34 -851 109 -1156 415
-356 355 -541 896 -522 1528 10 342 72 598 213 882 184 372 479 636 844 759
166 55 269 70 490 70 299 0 463 -34 697 -149 280 -137 507 -359 708 -691 37
-60 72 -114 78 -120 9 -9 241 131 932 562 506 315 923 574 928 574 4 0 1 -15
-7 -32z m-17170 -700 c-224 -443 -369 -923 -433 -1438 -22 -184 -26 -778 -5
-965 68 -605 249 -1177 531 -1671 632 -1106 1728 -1886 3019 -2149 62 -12 115
-25 118 -27 2 -3 -492 -1286 -1098 -2851 l-1103 -2846 -7 189 c-8 223 -28 376
-69 542 -79 314 -215 559 -437 789 -280 291 -646 498 -1154 653 l-113 35 65
27 c222 95 483 254 661 402 303 254 512 580 603 938 95 373 83 812 -31 1169
-203 638 -769 1120 -1548 1319 -251 64 -439 90 -892 122 l-73 6 -1 41 c0 23
-35 1336 -78 2917 -43 1581 -76 2877 -74 2880 5 5 1788 56 2050 59 l141 1 -72
-142z m4419 -83 c355 -61 674 -230 916 -483 126 -132 214 -258 303 -433 294
-584 300 -1283 16 -1864 -228 -468 -616 -778 -1113 -889 -396 -89 -807 -41
-1161 135 -496 247 -824 720 -941 1354 -22 119 -31 470 -16 602 38 324 146
622 318 883 95 143 284 336 418 427 225 152 497 252 770 283 110 12 381 4 490
-15z m27901 -2788 c29 -1079 52 -1962 51 -1963 -1 -1 -265 -9 -586 -18 -492
-13 -587 -18 -600 -31 -13 -13 -3 -478 97 -4197 94 -3509 114 -4184 126 -4196
12 -13 123 -12 836 8 452 12 822 20 824 18 2 -3 -11 -5377 -16 -6511 l-3 -558
-1453 3497 c-799 1923 -1450 3499 -1447 3502 3 4 116 9 251 13 205 5 248 9
262 22 14 15 6 375 -96 4199 -90 3342 -115 4185 -125 4196 -11 11 -176 8 -966
-13 -525 -14 -955 -25 -956 -23 -5 5 -107 3852 -103 3890 3 32 82 -80 983
-1396 930 -1358 982 -1431 1012 -1434 27 -3 36 3 60 36 15 21 424 689 908
1484 484 795 882 1444 885 1442 2 -3 28 -888 56 -1967z m-6617 -1067 c24 -955
34 -1207 44 -1217 11 -11 170 -9 937 12 508 13 925 24 926 22 3 -3 204 -7556
204 -7645 l0 -63 -336 1 c-268 1 -339 -1 -349 -12 -6 -7 -587 -1379 -1290
-3048 -703 -1669 -1285 -3052 -1294 -3073 l-16 -37 -970 551 c-533 303 -983
558 -999 566 -29 15 -31 14 -50 -10 -12 -13 -50 -73 -86 -131 -369 -609 -830
-888 -1465 -887 -530 0 -957 229 -1240 664 -146 225 -245 505 -291 822 -22
149 -25 515 -6 655 110 797 562 1347 1225 1491 182 39 465 36 675 -7 450 -93
822 -394 1081 -875 23 -42 49 -83 59 -92 16 -14 105 36 1165 653 631 368 1155
674 1163 680 7 7 14 18 14 25 0 21 -184 319 -277 450 -221 309 -499 611 -754
817 -49 39 -88 73 -86 74 1 1 463 14 1027 29 820 22 1028 30 1039 41 13 12
-203 340 -1520 2316 -845 1267 -1543 2314 -1552 2328 l-16 25 1409 1855 c1231
1621 1407 1857 1395 1870 -13 12 -158 10 -1167 -17 -634 -16 -1154 -30 -1155
-29 -1 1 51 24 115 51 512 213 999 537 1406 935 293 287 508 557 708 890 77
127 215 397 259 503 18 45 25 55 30 40 4 -10 21 -560 38 -1223z m-8039 235
c175 -227 453 -518 657 -687 437 -363 835 -588 1443 -816 l55 -21 -81 0 c-45
-1 -671 -17 -1390 -36 -1206 -33 -1310 -37 -1326 -53 -17 -17 -17 -59 6 -882
13 -476 22 -866 21 -868 -1 -2 -27 30 -56 70 -381 517 -936 976 -1503 1243
-126 60 -355 152 -463 186 -40 13 -73 25 -73 29 0 3 51 18 113 34 576 146
1096 404 1557 772 152 122 454 418 579 569 109 131 239 306 326 437 38 59 71
106 72 105 1 -1 29 -38 63 -82z m2339 -1576 c233 -68 546 -128 824 -159 301
-32 777 -31 1072 4 61 7 111 12 112 12 1 -1 -465 -651 -1035 -1445 l-1037
-1444 -7 89 c-4 49 -24 735 -43 1524 -23 897 -40 1442 -47 1454 -8 16 -7 18 9
12 10 -4 78 -25 152 -47z m-2885 -4311 c30 -1085 52 -1975 50 -1976 -1 -2
-467 242 -1034 543 -869 461 -1034 545 -1046 534 -7 -8 -45 -70 -85 -139 -331
-580 -720 -862 -1282 -931 -126 -15 -414 -6 -517 16 -392 85 -701 297 -922
630 -380 575 -439 1488 -137 2124 221 466 562 746 1040 853 91 20 130 23 319
23 296 0 464 -35 686 -141 276 -131 534 -385 727 -712 34 -58 67 -106 73 -109
7 -2 475 283 1041 635 565 352 1029 636 1031 632 2 -5 27 -897 56 -1982z
m-19815 1626 c254 -37 425 -133 499 -280 41 -82 56 -153 55 -264 0 -159 -45
-273 -143 -363 -100 -92 -286 -161 -502 -187 -79 -9 -1387 -52 -1396 -45 -5 4
-33 1117 -28 1122 7 7 832 30 1145 32 194 1 291 -3 370 -15z m8000 -2074 c229
-562 384 -956 377 -957 -14 -4 -1450 -43 -1452 -40 -1 1 152 445 339 986 188
541 342 980 344 975 2 -5 178 -439 392 -964z m-7754 -815 c191 -29 348 -94
451 -187 169 -155 204 -476 73 -680 -108 -169 -348 -277 -679 -307 -135 -12
-1487 -47 -1495 -39 -6 6 -34 899 -35 1094 l0 101 563 15 c776 21 1000 21
1122 3z m23729 -1016 c317 -485 575 -883 574 -885 -2 -2 -46 3 -98 11 -272 41
-402 49 -765 49 -378 0 -551 -13 -826 -63 -57 -10 -106 -17 -108 -15 -2 2 -10
212 -17 466 l-12 462 331 428 c183 235 335 427 338 428 3 0 266 -397 583 -881z
m-14590 -1679 c126 -297 237 -547 247 -556 17 -16 45 -17 319 -10 l300 7 0
-763 -1 -763 -38 100 c-260 677 -700 1288 -1273 1766 -311 259 -687 493 -1043
649 -118 52 -142 66 -120 68 22 3 800 26 1330 41 l50 1 229 -540z m4040 316
c590 -459 1345 -767 2115 -864 l144 -18 -2 -1719 c-1 -990 -6 -1775 -11 -1850
-52 -691 -351 -1077 -930 -1197 -140 -29 -420 -36 -568 -14 -565 83 -884 410
-1004 1031 -22 109 -22 126 -26 1590 -2 814 0 1881 3 2372 l7 892 87 -73 c47
-40 130 -108 185 -150z m-14518 -1078 c-24 -46 -185 -348 -356 -673 -172 -324
-315 -593 -319 -597 -4 -5 -160 288 -348 650 -188 361 -339 659 -337 661 3 3
1082 36 1312 40 l93 1 -45 -82z m7319 -948 c223 -44 441 -135 627 -261 137
-93 334 -293 430 -439 220 -331 338 -731 338 -1147 0 -682 -317 -1302 -825
-1613 -552 -339 -1296 -325 -1835 34 -243 163 -430 376 -567 650 -164 327
-233 648 -220 1026 21 604 283 1142 712 1463 105 79 330 194 462 237 83 26
249 62 343 74 19 2 123 3 230 1 152 -2 219 -7 305 -25z m25340 -1927 l361
-968 -560 -2 c-309 -2 -638 0 -732 5 l-172 7 367 966 c201 532 368 965 370
963 2 -2 167 -439 366 -971z"/>
</g>
</svg>
